<svg width="18" height="13" viewBox="0 0 18 13" fill="none" xmlns="http://www.w3.org/2000/svg">
<path d="M9 9.8125C9.8875 9.8125 10.6406 9.50312 11.2594 8.88437C11.8781 8.26562 12.1875 7.5125 12.1875 6.625C12.1875 5.7375 11.8781 4.98438 11.2594 4.36562C10.6406 3.74687 9.8875 3.4375 9 3.4375C8.1125 3.4375 7.35938 3.74687 6.74063 4.36562C6.12188 4.98438 5.8125 5.7375 5.8125 6.625C5.8125 7.5125 6.12188 8.26562 6.74063 8.88437C7.35938 9.50312 8.1125 9.8125 9 9.8125ZM9 8.55625C8.4625 8.55625 8.00625 8.36875 7.63125 7.99375C7.25625 7.61875 7.06875 7.1625 7.06875 6.625C7.06875 6.0875 7.25625 5.63125 7.63125 5.25625C8.00625 4.88125 8.4625 4.69375 9 4.69375C9.5375 4.69375 9.99375 4.88125 10.3687 5.25625C10.7437 5.63125 10.9312 6.0875 10.9312 6.625C10.9312 7.1625 10.7437 7.61875 10.3687 7.99375C9.99375 8.36875 9.5375 8.55625 9 8.55625ZM9 12.4938C7.2375 12.4938 5.63125 12.0094 4.18125 11.0406C2.73125 10.0719 1.6 8.80625 0.7875 7.24375C0.75 7.15625 0.71875 7.05937 0.69375 6.95312C0.66875 6.84687 0.65625 6.7375 0.65625 6.625C0.65625 6.5125 0.66875 6.4 0.69375 6.2875C0.71875 6.175 0.75 6.08125 0.7875 6.00625C1.6 4.44375 2.73125 3.17813 4.18125 2.20938C5.63125 1.24063 7.2375 0.75625 9 0.75625C10.7625 0.75625 12.3687 1.24063 13.8187 2.20938C15.2687 3.17813 16.4 4.44375 17.2125 6.00625C17.25 6.08125 17.2812 6.175 17.3063 6.2875C17.3313 6.4 17.3438 6.5125 17.3438 6.625C17.3438 6.7375 17.3313 6.84687 17.3063 6.95312C17.2812 7.05937 17.25 7.15625 17.2125 7.24375C16.4 8.80625 15.2687 10.0719 13.8187 11.0406C12.3687 12.0094 10.7625 12.4938 9 12.4938ZM9 11.125C10.5125 11.125 11.9 10.7156 13.1625 9.89687C14.425 9.07812 15.3875 7.9875 16.05 6.625C15.3875 5.2625 14.425 4.17187 13.1625 3.35312C11.9 2.53437 10.5125 2.125 9 2.125C7.4875 2.125 6.1 2.53437 4.8375 3.35312C3.575 4.17187 2.60625 5.2625 1.93125 6.625C2.60625 7.9875 3.575 9.07812 4.8375 9.89687C6.1 10.7156 7.4875 11.125 9 11.125Z" fill="#12326E"/>
</svg>
